<svg id="icons" enable-background="new 0 0 64 64" height="512" viewBox="0 0 64 64" width="512" xmlns="http://www.w3.org/2000/svg"><path d="m29.03 5c.552 0 1-.447 1-1s-.448-1-1-1h-.01c-.552 0-.994.447-.994 1s.452 1 1.004 1z"/><path d="m32 5h3c.553 0 1-.447 1-1s-.447-1-1-1h-3c-.553 0-1 .447-1 1s.447 1 1 1z"/><path d="m50 57v-50.998c0-3.305-2.685-5.992-5.987-5.999-.004 0-.008-.003-.013-.003h-24c-3.309 0-6 2.691-6 6v51c0 3.859 3.141 7 7 7h22c3.859 0 7-3.141 7-7zm-2-7h-32v-41.998h32zm-32 2h16 16v1c0 2.757-2.243 5-5 5h-11-11c-2.757 0-5-2.243-5-5zm4-50h23.99c.004 0 .006.002.01.002 2.206 0 4 1.794 4 4h-32v-.002c0-2.206 1.794-4 4-4zm23 60h-22c-2.418 0-4.438-1.726-4.9-4.01 1.264 1.241 2.994 2.01 4.9 2.01h22c1.906 0 3.636-.769 4.9-2.01-.462 2.284-2.482 4.01-4.9 4.01z"/><path d="m29 55c0 1.654 1.346 3 3 3s3-1.346 3-3-1.346-3-3-3-3 1.346-3 3zm3-1c.552 0 1 .448 1 1s-.448 1-1 1-1-.448-1-1 .448-1 1-1z"/><path d="m23 42.998h18c2.757 0 5-2.243 5-5v-18c0-2.757-2.243-5-5-5h-18c-2.757 0-5 2.243-5 5v18c0 2.757 2.243 5 5 5zm-3-23c0-1.654 1.346-3 3-3h18c1.654 0 3 1.346 3 3v18c0 1.654-1.346 3-3 3h-18c-1.654 0-3-1.346-3-3z"/><path d="m28.001 32.002c.256 0 .512-.098.707-.293.391-.391.391-1.023 0-1.414l-1.292-1.292 1.292-1.293c.391-.391.391-1.023 0-1.414s-1.023-.391-1.414 0l-1.999 2c-.391.391-.391 1.023 0 1.414l1.999 1.999c.195.195.451.293.707.293z"/><path d="m35.299 31.709c.195.195.451.293.707.293s.512-.098.707-.293l1.999-1.999c.391-.391.391-1.023 0-1.414l-1.999-2c-.391-.391-1.023-.391-1.414 0s-.391 1.023 0 1.414l1.292 1.293-1.292 1.292c-.391.391-.391 1.023 0 1.414z"/><path d="m30.687 32.951c.105.035.212.052.316.052.419 0 .81-.265.949-.684l1.998-6c.175-.524-.108-1.091-.632-1.265-.527-.175-1.091.108-1.265.632l-1.999 6c-.174.525.109 1.091.633 1.265z"/><path d="m32 40c6.065 0 11-4.935 11-11s-4.935-11-11-11-11 4.935-11 11 4.935 11 11 11zm0-20c4.963 0 9 4.037 9 9s-4.037 9-9 9-9-4.037-9-9 4.037-9 9-9z"/></svg>